<svg id="Layer_1" data-name="Layer 1" xmlns="http://www.w3.org/2000/svg" viewBox="0 0 400 400"><defs><style>.cls-1{fill:#8be07e;}.cls-2{fill:#8db572;}.cls-3{fill:#82aa68;}.cls-4{fill:#779e5f;}.cls-5{font-size:34.9px;font-family:BookmanJFPro-Roman, BookmanJFPro;}.cls-5,.cls-9{fill:#67752e;}.cls-6{letter-spacing:-0.04em;}.cls-7{font-size:41px;fill:#fff;font-family:FuturaPT-Bold, Futura PT;font-weight:700;}.cls-8{letter-spacing:-0.02em;}</style></defs><rect class="cls-1" y="-1.5" width="400" height="402"/><path class="cls-2" d="M315.36,400.5H84.64V103.58A20.08,20.08,0,0,1,104.72,83.5H295.28a20.08,20.08,0,0,1,20.08,20.08Z"/><path class="cls-3" d="M342,400.5H58V122a20.08,20.08,0,0,1,20.08-20.08H321.94A20.08,20.08,0,0,1,342,122Z"/><path class="cls-4" d="M359,400.5H41V150.11A20.07,20.07,0,0,1,61.09,130H338.91A20.07,20.07,0,0,1,359,150.11Z"/><text class="cls-5" transform="translate(113.14 178.62)">The <tspan class="cls-6" x="80.34" y="0">N</tspan><tspan x="108.85" y="0">ews</tspan></text><text class="cls-7" transform="translate(46.19 55.42)">NEWS RELE<tspan class="cls-8" x="212.67" y="0">A</tspan><tspan x="240.75" y="0">SES</tspan></text><rect class="cls-9" x="57.5" y="206.62" width="99.85" height="91.13" rx="7.36"/><rect class="cls-9" x="237.81" y="331.67" width="99.85" height="68.83" rx="7.36"/><rect class="cls-9" x="171.89" y="206.62" width="170.62" height="14.28" rx="7.14"/><rect class="cls-9" x="171.89" y="227.94" width="165.77" height="14.28" rx="7.14"/><rect class="cls-9" x="171.89" y="249.27" width="149.29" height="14.28" rx="7.14"/><rect class="cls-9" x="171.89" y="270.6" width="162.86" height="14.28" rx="7.14"/><rect class="cls-9" x="59.43" y="334.58" width="165.77" height="14.28" rx="7.14"/><rect class="cls-9" x="75.91" y="355.91" width="149.29" height="14.28" rx="7.14"/><rect class="cls-9" x="62.34" y="377.23" width="162.86" height="14.28" rx="7.14"/></svg>