<svg id="Layer_1" data-name="Layer 1" xmlns="http://www.w3.org/2000/svg" viewBox="0 0 400 400"><defs><style>.cls-1{fill:#347ff7;}.cls-2{font-size:41px;fill:#fff;font-family:FuturaPT-Bold, Futura PT;font-weight:700;}.cls-3{letter-spacing:-0.02em;}.cls-4{fill:#3374c1;}.cls-5{fill:#2e599e;}</style></defs><rect class="cls-1" y="-0.5" width="400" height="401"/><text class="cls-2" transform="translate(99.74 55.42)">WE<tspan class="cls-3" x="61.62" y="0">B</tspan><tspan x="86.35" y="0">CAMS</tspan></text><path class="cls-4" d="M314.43,355.5H85.57c-8.2,0-10.45-11.28-2.88-14.42l55.33-23a17.83,17.83,0,0,0,11-16.46V290.5H251v11.11a17.83,17.83,0,0,0,11,16.46l55.33,23C324.88,344.22,322.63,355.5,314.43,355.5Z"/><path class="cls-5" d="M305,203.5a104.9,104.9,0,1,1-9.2-43.06A104.69,104.69,0,0,1,305,203.5Z"/><path class="cls-4" d="M305,203.5a104.69,104.69,0,0,1-9.2,43.06,61,61,0,0,1,0-86.12A104.69,104.69,0,0,1,305,203.5Z"/><path class="cls-4" d="M122,203.5a60.79,60.79,0,0,1-17.8,43.06,105.37,105.37,0,0,1,0-86.12A60.79,60.79,0,0,1,122,203.5Z"/><circle class="cls-4" cx="200" cy="200.5" r="45"/></svg>